{
  "accessors": [
    {
      "bufferView": 2,
      "componentType": 5126,
      "count": 739,
      "max": [
        6.9261946678161621,
        15.715643882751465,
        13.02287483215332
      ],
      "min": [
        -7.2589640617370605,
        -8.9431400299072266,
        -2.0881180763244629
      ],
      "type": "VEC3"
    },
    {
      "bufferView": 2,
      "byteOffset": 8868,
      "componentType": 5126,
      "count": 739,
      "max": [
        0.99997222423553467,
        0.99999856948852539,
        1
      ],
      "min": [
        -0.99997222423553467,
        -0.99999856948852539,
        -1
      ],
      "type": "VEC3"
    },
    {
      "bufferView": 3,
      "componentType": 5126,
      "count": 739,
      "max": [
        1,
        0.96304500102996826,
        0.96363711357116699,
        1
      ],
      "min": [
        -1,
        -0.98374801874160767,
        -0.9966130256652832,
        -1
      ],
      "type": "VEC4"
    },
    {
      "bufferView": 1,
      "componentType": 5126,
      "count": 739,
      "max": [
        0.98605960607528687,
        0.97441834211349487
      ],
      "min": [
        0.0077186976559460163,
        0.027288377285003662
      ],
      "type": "VEC2"
    },
    {
      "bufferView": 0,
      "componentType": 5125,
      "count": 3240,
      "max": [
        738
      ],
      "min": [
        0
      ],
      "type": "SCALAR"
    }
  ],
  "asset": {
    "extras": {
      "author": "Nick Pekarsky (https://sketchfab.com/kolumba1991)",
      "license": "CC-BY-4.0 (http://creativecommons.org/licenses/by/4.0/)",
      "source": "https://sketchfab.com/models/892e724659c44d6c8771252523075b54",
      "title": "Pokemon master's cap"
    },
    "generator": "Sketchfab-3.31.2",
    "version": "2.0"
  },
  "bufferViews": [
    {
      "buffer": 0,
      "byteLength": 12960,
      "byteOffset": 0,
      "name": "floatBufferViews",
      "target": 34963
    },
    {
      "buffer": 0,
      "byteLength": 5912,
      "byteOffset": 12960,
      "byteStride": 8,
      "name": "floatBufferViews",
      "target": 34962
    },
    {
      "buffer": 0,
      "byteLength": 17736,
      "byteOffset": 18872,
      "byteStride": 12,
      "name": "floatBufferViews",
      "target": 34962
    },
    {
      "buffer": 0,
      "byteLength": 11824,
      "byteOffset": 36608,
      "byteStride": 16,
      "name": "floatBufferViews",
      "target": 34962
    }
  ],
  "buffers": [
    {
      "byteLength": 48432,
      "uri": "scene.bin"
    }
  ],
  "images": [
    {
      "uri": "textures/Material_normal.png"
    },
    {
      "uri": "textures/Material_metallicRoughness.png"
    },
    {
      "uri": "textures/Material_baseColor.png"
    }
  ],
  "materials": [
    {
      "doubleSided": true,
      "emissiveFactor": [
        0,
        0,
        0
      ],
      "name": "Material",
      "normalTexture": {
        "index": 0,
        "scale": 1,
        "texCoord": 0
      },
      "pbrMetallicRoughness": {
        "baseColorFactor": [
          1,
          1,
          1,
          1
        ],
        "baseColorTexture": {
          "index": 2,
          "texCoord": 0
        },
        "metallicFactor": 0,
        "metallicRoughnessTexture": {
          "index": 1,
          "texCoord": 0
        },
        "roughnessFactor": 1
      }
    }
  ],
  "meshes": [
    {
      "name": "LOW_Material_0",
      "primitives": [
        {
          "attributes": {
            "NORMAL": 1,
            "POSITION": 0,
            "TANGENT": 2,
            "TEXCOORD_0": 3
          },
          "indices": 4,
          "material": 0,
          "mode": 4
        }
      ]
    }
  ],
  "nodes": [
    {
      "children": [
        1
      ],
      "name": "RootNode (gltf orientation matrix)",
      "rotation": [
        -0.70710678118654746,
        -0,
        -0,
        0.70710678118654757
      ]
    },
    {
      "children": [
        2
      ],
      "name": "RootNode (model correction matrix)"
    },
    {
      "children": [
        3
      ],
      "matrix": [
        1,
        0,
        0,
        0,
        0,
        0,
        1,
        0,
        0,
        -1,
        0,
        0,
        0,
        0,
        0,
        1
      ],
      "name": "2225b83707594f8683ea963b5911d1f4.fbx"
    },
    {
      "children": [
        4,
        6
      ],
      "name": "RootNode"
    },
    {
      "children": [
        5
      ],
      "matrix": [
        100,
        -4.755506671064924e-15,
        -5.1521808856605417e-16,
        0,
        5.1521882420587111e-16,
        21.416900084816703,
        -97.679662114265014,
        0,
        4.7555065913646438e-15,
        97.679662114265014,
        21.416900084816703,
        0,
        17.043275833129883,
        0,
        0,
        1
      ],
      "name": "LOW"
    },
    {
      "mesh": 0,
      "name": "LOW_Material_0"
    },
    {
      "children": [
        7
      ],
      "matrix": [
        -81.638297671470582,
        -29.597613600632723,
        -49.589999965448243,
        0,
        -25.296435772486571,
        95.519525455586404,
        -15.365840948974979,
        0,
        51.916058831867986,
        9.1517193796504084e-05,
        -85.467662361145713,
        0,
        1437.1038818359375,
        1021.5952758789062,
        917.6209716796875,
        1
      ],
      "name": "Camera"
    },
    {
      "name": ""
    }
  ],
  "samplers": [
    {
      "magFilter": 9729,
      "minFilter": 9987,
      "wrapS": 10497,
      "wrapT": 10497
    }
  ],
  "scene": 0,
  "scenes": [
    {
      "name": "OSG_Scene",
      "nodes": [
        0
      ]
    }
  ],
  "textures": [
    {
      "sampler": 0,
      "source": 0
    },
    {
      "sampler": 0,
      "source": 1
    },
    {
      "sampler": 0,
      "source": 2
    }
  ]
}

