{
  "accessors": [
    {
      "bufferView": 2,
      "componentType": 5126,
      "count": 313,
      "max": [0.20530000329017639, 1.6146399974822998, 0.26348701119422913],
      "min": [-0.2335049957036972, 0.79916602373123169, -0.16469399631023407],
      "type": "VEC3"
    },
    {
      "bufferView": 2,
      "byteOffset": 3756,
      "componentType": 5126,
      "count": 313,
      "max": [0.98078131675720215, 0.99730777740478516, 0.99244022369384766],
      "min": [-0.93711727857589722, -0.9889647364616394, -0.99398148059844971],
      "type": "VEC3"
    },
    {
      "bufferView": 1,
      "componentType": 5126,
      "count": 313,
      "max": [0.99505001306533813, 0.99504899978637695],
      "min": [0.0049499999731779099, 0.0049499999731779099],
      "type": "VEC2"
    },
    {
      "bufferView": 0,
      "componentType": 5125,
      "count": 387,
      "max": [312],
      "min": [0],
      "type": "SCALAR"
    },
    {
      "bufferView": 2,
      "byteOffset": 7512,
      "componentType": 5126,
      "count": 312,
      "max": [0.20364400744438171, 0.82879698276519775, 0.12366800010204315],
      "min": [-0.25620201230049133, 0.18454200029373169, -0.2243410050868988],
      "type": "VEC3"
    },
    {
      "bufferView": 2,
      "byteOffset": 11256,
      "componentType": 5126,
      "count": 312,
      "max": [0.9953886866569519, 0.75793659687042236, 0.998008131980896],
      "min": [-0.99253380298614502, -0.83257269859313965, -0.99951088428497314],
      "type": "VEC3"
    },
    {
      "bufferView": 1,
      "byteOffset": 2504,
      "componentType": 5126,
      "count": 312,
      "max": [0.99504899978637695, 0.99504899978637695],
      "min": [0.5, 0.0049499999731779099],
      "type": "VEC2"
    },
    {
      "bufferView": 0,
      "byteOffset": 1548,
      "componentType": 5125,
      "count": 444,
      "max": [311],
      "min": [0],
      "type": "SCALAR"
    },
    {
      "bufferView": 2,
      "byteOffset": 15000,
      "componentType": 5126,
      "count": 563,
      "max": [0.29373198747634888, 1.696863055229187, 0.35895898938179016],
      "min": [
        -0.40794599056243896, -0.0027119999285787344, -0.3007889986038208
      ],
      "type": "VEC3"
    },
    {
      "bufferView": 2,
      "byteOffset": 21756,
      "componentType": 5126,
      "count": 563,
      "max": [0.99783378839492798, 0.99837708473205566, 0.99622499942779541],
      "min": [-0.99541246891021729, -0.99927544593811035, -0.9959445595741272],
      "type": "VEC3"
    },
    {
      "bufferView": 1,
      "byteOffset": 5000,
      "componentType": 5126,
      "count": 563,
      "max": [0.99505001306533813, 0.99504899978637695],
      "min": [0.0049499999731779099, 0.0049499999731779099],
      "type": "VEC2"
    },
    {
      "bufferView": 0,
      "byteOffset": 3324,
      "componentType": 5125,
      "count": 789,
      "max": [562],
      "min": [0],
      "type": "SCALAR"
    },
    {
      "bufferView": 2,
      "byteOffset": 28512,
      "componentType": 5126,
      "count": 758,
      "max": [0.60637599229812622, 1.5477950572967529, 0.39815399050712585],
      "min": [-0.33795499801635742, 0.59437400102615356, -0.44747599959373474],
      "type": "VEC3"
    },
    {
      "bufferView": 2,
      "byteOffset": 37608,
      "componentType": 5126,
      "count": 758,
      "max": [0.99997532367706299, 0.97730845212936401, 0.99833005666732788],
      "min": [-0.99802589416503906, -0.99697279930114746, -0.99103277921676636],
      "type": "VEC3"
    },
    {
      "bufferView": 1,
      "byteOffset": 9504,
      "componentType": 5126,
      "count": 758,
      "max": [0.99504899978637695, 0.99504899978637695],
      "min": [0, 0],
      "type": "VEC2"
    },
    {
      "bufferView": 0,
      "byteOffset": 6480,
      "componentType": 5125,
      "count": 984,
      "max": [757],
      "min": [0],
      "type": "SCALAR"
    },
    {
      "bufferView": 2,
      "byteOffset": 46704,
      "componentType": 5126,
      "count": 494,
      "max": [0.29373198747634888, 1.7535309791564941, 0.39066898822784424],
      "min": [-0.40794599056243896, 0.027334999293088913, -0.26108700037002563],
      "type": "VEC3"
    },
    {
      "bufferView": 2,
      "byteOffset": 52632,
      "componentType": 5126,
      "count": 494,
      "max": [0.99862897396087646, 0.99129247665405273, 0.99768537282943726],
      "min": [-0.99614977836608887, -0.9905250072479248, -0.9994317889213562],
      "type": "VEC3"
    },
    {
      "bufferView": 1,
      "byteOffset": 15568,
      "componentType": 5126,
      "count": 494,
      "max": [0.99504899978637695, 0.99504899978637695],
      "min": [0.5, 0.0049499999731779099],
      "type": "VEC2"
    },
    {
      "bufferView": 0,
      "byteOffset": 10416,
      "componentType": 5125,
      "count": 636,
      "max": [493],
      "min": [0],
      "type": "SCALAR"
    },
    {
      "bufferView": 2,
      "byteOffset": 58560,
      "componentType": 5126,
      "count": 144,
      "max": [0.20293700695037842, 1.6231989860534668, 0.22945199906826019],
      "min": [-0.44581499695777893, 0.061845000833272934, -0.56708401441574097],
      "type": "VEC3"
    },
    {
      "bufferView": 2,
      "byteOffset": 60288,
      "componentType": 5126,
      "count": 144,
      "max": [0.996967613697052, 0.98946040868759155, 0.99538636207580566],
      "min": [-0.99361860752105713, -0.99504494667053223, -0.98194575309753418],
      "type": "VEC3"
    },
    {
      "bufferView": 1,
      "byteOffset": 19520,
      "componentType": 5126,
      "count": 144,
      "max": [0.99505001306533813, 0.99504899978637695],
      "min": [0.0049499999731779099, 0.0049499999731779099],
      "type": "VEC2"
    },
    {
      "bufferView": 0,
      "byteOffset": 12960,
      "componentType": 5125,
      "count": 186,
      "max": [143],
      "min": [0],
      "type": "SCALAR"
    },
    {
      "bufferView": 2,
      "byteOffset": 62016,
      "componentType": 5126,
      "count": 372,
      "max": [0.9411889910697937, 0.47082599997520447, 0.36781200766563416],
      "min": [0.29886698722839355, 0, -0.34398999810218811],
      "type": "VEC3"
    },
    {
      "bufferView": 2,
      "byteOffset": 66480,
      "componentType": 5126,
      "count": 372,
      "max": [0.99722981452941895, 0.94474470615386963, 0.98739790916442871],
      "min": [-0.9973071813583374, -0.99988740682601929, -0.98950368165969849],
      "type": "VEC3"
    },
    {
      "bufferView": 1,
      "byteOffset": 20672,
      "componentType": 5126,
      "count": 372,
      "max": [0.99504899978637695, 0.99504899978637695],
      "min": [0.5, 0.0049499999731779099],
      "type": "VEC2"
    },
    {
      "bufferView": 0,
      "byteOffset": 13704,
      "componentType": 5125,
      "count": 420,
      "max": [371],
      "min": [0],
      "type": "SCALAR"
    },
    {
      "bufferView": 2,
      "byteOffset": 70944,
      "componentType": 5126,
      "count": 164,
      "max": [0.91472101211547852, 0.59494698047637939, 0.039569001644849777],
      "min": [0.4302540123462677, 0.20651699602603912, -0.40889200568199158],
      "type": "VEC3"
    },
    {
      "bufferView": 2,
      "byteOffset": 72912,
      "componentType": 5126,
      "count": 164,
      "max": [0.96753352880477905, 0.99169313907623291, 0.99819910526275635],
      "min": [-0.99804264307022095, -0.91634291410446167, -0.98969584703445435],
      "type": "VEC3"
    },
    {
      "bufferView": 1,
      "byteOffset": 23648,
      "componentType": 5126,
      "count": 164,
      "max": [0.74752497673034668, 0.99504899978637695],
      "min": [0.5, 0.0049499999731779099],
      "type": "VEC2"
    },
    {
      "bufferView": 0,
      "byteOffset": 15384,
      "componentType": 5125,
      "count": 216,
      "max": [163],
      "min": [0],
      "type": "SCALAR"
    },
    {
      "bufferView": 2,
      "byteOffset": 74880,
      "componentType": 5126,
      "count": 550,
      "max": [0.15916700661182404, 0.68657797574996948, 0.022419000044465065],
      "min": [
        -0.51408398151397705, -0.0018860000418499112, -0.66746997833251953
      ],
      "type": "VEC3"
    },
    {
      "bufferView": 2,
      "byteOffset": 81480,
      "componentType": 5126,
      "count": 550,
      "max": [0.99300861358642578, 0.99714553356170654, 0.96985769271850586],
      "min": [-0.96968364715576172, -0.99971109628677368, -0.99717265367507935],
      "type": "VEC3"
    },
    {
      "bufferView": 1,
      "byteOffset": 24960,
      "componentType": 5126,
      "count": 550,
      "max": [0.99504899978637695, 0.99504899978637695],
      "min": [0.5, 0.0049499999731779099],
      "type": "VEC2"
    },
    {
      "bufferView": 0,
      "byteOffset": 16248,
      "componentType": 5125,
      "count": 654,
      "max": [549],
      "min": [0],
      "type": "SCALAR"
    },
    {
      "bufferView": 2,
      "byteOffset": 88080,
      "componentType": 5126,
      "count": 60,
      "max": [0.20459499955177307, 0.33878499269485474, -0.26650598645210266],
      "min": [0.092606998980045319, 0.13981300592422485, -0.39569300413131714],
      "type": "VEC3"
    },
    {
      "bufferView": 2,
      "byteOffset": 88800,
      "componentType": 5126,
      "count": 60,
      "max": [0.9993976354598999, 0.83688020706176758, 0.95467203855514526],
      "min": [-0.83992928266525269, -0.9994930624961853, -0.88450181484222412],
      "type": "VEC3"
    },
    {
      "bufferView": 1,
      "byteOffset": 29360,
      "componentType": 5126,
      "count": 60,
      "max": [0.99504899978637695, 0.99504899978637695],
      "min": [0.0049499999731779099, 0.0049499999731779099],
      "type": "VEC2"
    },
    {
      "bufferView": 0,
      "byteOffset": 18864,
      "componentType": 5125,
      "count": 60,
      "max": [59],
      "min": [0],
      "type": "SCALAR"
    },
    {
      "bufferView": 2,
      "byteOffset": 89520,
      "componentType": 5126,
      "count": 432,
      "max": [0.73444801568984985, 1.2211780548095703, -0.088123001158237457],
      "min": [0.10602899640798569, 0.33996298909187317, -0.48092201352119446],
      "type": "VEC3"
    },
    {
      "bufferView": 2,
      "byteOffset": 94704,
      "componentType": 5126,
      "count": 432,
      "max": [0.99891179800033569, 0.9998663067817688, 0.99934089183807373],
      "min": [-0.999126136302948, -0.97911685705184937, -0.99744594097137451],
      "type": "VEC3"
    },
    {
      "bufferView": 1,
      "byteOffset": 29840,
      "componentType": 5126,
      "count": 432,
      "max": [0.99504899978637695, 0.99504899978637695],
      "min": [0, 0],
      "type": "VEC2"
    },
    {
      "bufferView": 0,
      "byteOffset": 19104,
      "componentType": 5125,
      "count": 516,
      "max": [431],
      "min": [0],
      "type": "SCALAR"
    },
    {
      "bufferView": 2,
      "byteOffset": 99888,
      "componentType": 5126,
      "count": 68,
      "max": [0.60637599229812622, 1.0753010511398315, -0.39117699861526489],
      "min": [0.22351400554180145, 0.5784040093421936, -0.59893399477005005],
      "type": "VEC3"
    },
    {
      "bufferView": 2,
      "byteOffset": 100704,
      "componentType": 5126,
      "count": 68,
      "max": [0.96479511260986328, 0.89471966028213501, 0.11108982563018799],
      "min": [-0.98369681835174561, -0.80655902624130249, -0.96942824125289917],
      "type": "VEC3"
    },
    {
      "bufferView": 1,
      "byteOffset": 33296,
      "componentType": 5126,
      "count": 68,
      "max": [0, 0],
      "min": [0, 0],
      "type": "VEC2"
    },
    {
      "bufferView": 0,
      "byteOffset": 21168,
      "componentType": 5125,
      "count": 84,
      "max": [67],
      "min": [0],
      "type": "SCALAR"
    }
  ],
  "asset": {
    "extras": {
      "author": "DavidA3D (https://sketchfab.com/DavidA3D)",
      "license": "CC-BY-NC-4.0 (http://creativecommons.org/licenses/by-nc/4.0/)",
      "source": "https://sketchfab.com/3d-models/red-pokemon-43d168857ff642988ac99c9348310cb5",
      "title": "Red (Pokemon)"
    },
    "generator": "Sketchfab-8.86.0",
    "version": "2.0"
  },
  "bufferViews": [
    {
      "buffer": 0,
      "byteLength": 21504,
      "byteOffset": 0,
      "name": "floatBufferViews",
      "target": 34963
    },
    {
      "buffer": 0,
      "byteLength": 33840,
      "byteOffset": 21504,
      "byteStride": 8,
      "name": "floatBufferViews",
      "target": 34962
    },
    {
      "buffer": 0,
      "byteLength": 101520,
      "byteOffset": 55344,
      "byteStride": 12,
      "name": "floatBufferViews",
      "target": 34962
    }
  ],
  "buffers": [
    {
      "byteLength": 156864,
      "uri": "scene.bin"
    }
  ],
  "materials": [
    {
      "doubleSided": true,
      "emissiveFactor": [0, 0, 0],
      "name": "Black",
      "pbrMetallicRoughness": {
        "baseColorFactor": [
          0.043137000000000002, 0.043137000000000002, 0.043137000000000002, 1
        ],
        "metallicFactor": 0,
        "roughnessFactor": 0.9916393478289105
      }
    },
    {
      "doubleSided": true,
      "emissiveFactor": [0, 0, 0],
      "name": "Cyan",
      "pbrMetallicRoughness": {
        "baseColorFactor": [
          0.34117599999999998, 0.65882399999999997, 0.65882399999999997, 1
        ],
        "metallicFactor": 0,
        "roughnessFactor": 0.8853979869290215
      }
    },
    {
      "doubleSided": true,
      "emissiveFactor": [0, 0, 0],
      "name": "White",
      "pbrMetallicRoughness": {
        "baseColorFactor": [
          0.75686299999999995, 0.75686299999999995, 0.75686299999999995, 1
        ],
        "metallicFactor": 0,
        "roughnessFactor": 0.85330764113945579
      }
    },
    {
      "doubleSided": true,
      "emissiveFactor": [0, 0, 0],
      "name": "Skin",
      "pbrMetallicRoughness": {
        "baseColorFactor": [
          0.80000000000000004, 0.67451000000000005, 0.56862699999999999, 1
        ],
        "metallicFactor": 0,
        "roughnessFactor": 0.86557981147217222
      }
    },
    {
      "doubleSided": true,
      "emissiveFactor": [0, 0, 0],
      "name": "material",
      "pbrMetallicRoughness": {
        "baseColorFactor": [
          0.80000000000000004, 0.29411799999999999, 0.403922, 1
        ],
        "metallicFactor": 0,
        "roughnessFactor": 0.92061356345537115
      }
    },
    {
      "doubleSided": true,
      "emissiveFactor": [0, 0, 0],
      "name": "Yellow",
      "pbrMetallicRoughness": {
        "baseColorFactor": [
          0.79607799999999995, 0.77647100000000002, 0.53333299999999995, 1
        ],
        "metallicFactor": 0,
        "roughnessFactor": 0.85210173871255401
      }
    },
    {
      "doubleSided": true,
      "emissiveFactor": [0, 0, 0],
      "name": "Seafoam",
      "pbrMetallicRoughness": {
        "baseColorFactor": [
          0.32549, 0.65882399999999997, 0.48235299999999998, 1
        ],
        "metallicFactor": 0,
        "roughnessFactor": 0.88851378683775217
      }
    },
    {
      "doubleSided": true,
      "emissiveFactor": [0, 0, 0],
      "name": "Green",
      "pbrMetallicRoughness": {
        "baseColorFactor": [0.129412, 0.33333299999999999, 0.129412, 1],
        "metallicFactor": 0,
        "roughnessFactor": 0.94665085250451964
      }
    },
    {
      "doubleSided": true,
      "emissiveFactor": [0, 0, 0],
      "name": "Orange",
      "pbrMetallicRoughness": {
        "baseColorFactor": [
          0.83137300000000003, 0.54117599999999999, 0.28235300000000002, 1
        ],
        "metallicFactor": 0,
        "roughnessFactor": 0.88677547276227719
      }
    },
    {
      "alphaMode": "BLEND",
      "doubleSided": true,
      "emissiveFactor": [1, 0.1647897251764173, 0],
      "name": "Flame",
      "pbrMetallicRoughness": {
        "baseColorFactor": [
          0.80000000000000004, 0.086274500000000004, 0.086274500000000004,
          0.56716615289203443
        ],
        "metallicFactor": 0,
        "roughnessFactor": 0.95386929851017987
      }
    },
    {
      "doubleSided": true,
      "emissiveFactor": [0, 0, 0],
      "name": "BlueLight",
      "pbrMetallicRoughness": {
        "baseColorFactor": [
          0.403922, 0.74902000000000002, 0.80000000000000004, 1
        ],
        "metallicFactor": 0,
        "roughnessFactor": 0.86833423134378052
      }
    },
    {
      "doubleSided": true,
      "emissiveFactor": [0, 0, 0],
      "name": "Brown",
      "pbrMetallicRoughness": {
        "baseColorFactor": [
          0.43529400000000001, 0.33725500000000003, 0.270588, 1
        ],
        "metallicFactor": 0,
        "roughnessFactor": 0.93152767280223769
      }
    }
  ],
  "meshes": [
    {
      "name": "Red_Black_0",
      "primitives": [
        {
          "attributes": {
            "NORMAL": 1,
            "POSITION": 0,
            "TEXCOORD_0": 2
          },
          "indices": 3,
          "material": 0,
          "mode": 4
        }
      ]
    },
    {
      "name": "Red_Cyan_0",
      "primitives": [
        {
          "attributes": {
            "NORMAL": 5,
            "POSITION": 4,
            "TEXCOORD_0": 6
          },
          "indices": 7,
          "material": 1,
          "mode": 4
        }
      ]
    },
    {
      "name": "Red_White_0",
      "primitives": [
        {
          "attributes": {
            "NORMAL": 9,
            "POSITION": 8,
            "TEXCOORD_0": 10
          },
          "indices": 11,
          "material": 2,
          "mode": 4
        }
      ]
    },
    {
      "name": "Red_Skin_0",
      "primitives": [
        {
          "attributes": {
            "NORMAL": 13,
            "POSITION": 12,
            "TEXCOORD_0": 14
          },
          "indices": 15,
          "material": 3,
          "mode": 4
        }
      ]
    },
    {
      "name": "Red_Red_0",
      "primitives": [
        {
          "attributes": {
            "NORMAL": 17,
            "POSITION": 16,
            "TEXCOORD_0": 18
          },
          "indices": 19,
          "material": 4,
          "mode": 4
        }
      ]
    },
    {
      "name": "Red_Yellow_0",
      "primitives": [
        {
          "attributes": {
            "NORMAL": 21,
            "POSITION": 20,
            "TEXCOORD_0": 22
          },
          "indices": 23,
          "material": 5,
          "mode": 4
        }
      ]
    },
    {
      "name": "Red_Seafoam_0",
      "primitives": [
        {
          "attributes": {
            "NORMAL": 25,
            "POSITION": 24,
            "TEXCOORD_0": 26
          },
          "indices": 27,
          "material": 6,
          "mode": 4
        }
      ]
    },
    {
      "name": "Red_Green_0",
      "primitives": [
        {
          "attributes": {
            "NORMAL": 29,
            "POSITION": 28,
            "TEXCOORD_0": 30
          },
          "indices": 31,
          "material": 7,
          "mode": 4
        }
      ]
    },
    {
      "name": "Red_Orange_0",
      "primitives": [
        {
          "attributes": {
            "NORMAL": 33,
            "POSITION": 32,
            "TEXCOORD_0": 34
          },
          "indices": 35,
          "material": 8,
          "mode": 4
        }
      ]
    },
    {
      "name": "Red_Flame_0",
      "primitives": [
        {
          "attributes": {
            "NORMAL": 37,
            "POSITION": 36,
            "TEXCOORD_0": 38
          },
          "indices": 39,
          "material": 9,
          "mode": 4
        }
      ]
    },
    {
      "name": "Red_BlueLight_0",
      "primitives": [
        {
          "attributes": {
            "NORMAL": 41,
            "POSITION": 40,
            "TEXCOORD_0": 42
          },
          "indices": 43,
          "material": 10,
          "mode": 4
        }
      ]
    },
    {
      "name": "Red_Brown_0",
      "primitives": [
        {
          "attributes": {
            "NORMAL": 45,
            "POSITION": 44,
            "TEXCOORD_0": 46
          },
          "indices": 47,
          "material": 11,
          "mode": 4
        }
      ]
    }
  ],
  "nodes": [
    {
      "children": [1],
      "name": "RootNode (gltf orientation matrix)",
      "rotation": [-0.70710678118654746, -0, -0, 0.70710678118654757]
    },
    {
      "children": [2],
      "name": "RootNode (model correction matrix)"
    },
    {
      "children": [3],
      "matrix": [1, 0, 0, 0, 0, 0, 1, 0, 0, -1, 0, 0, 0, 0, 0, 1],
      "name": "299b7f3bd9554c7bb653735c4c6e0d2e.fbx"
    },
    {
      "children": [4],
      "name": "RootNode"
    },
    {
      "children": [5, 6, 7, 8, 9, 10, 11, 12, 13, 14, 15, 16],
      "matrix": [
        100, 0, 0, 0, 0, 99.999999999998664, 1.6292067073209114e-5, 0, 0,
        -1.6292067073209114e-5, 99.999999999998664, 0, 0, 0, 0, 1
      ],
      "name": "Red"
    },
    {
      "mesh": 0,
      "name": "Red_Black_0"
    },
    {
      "mesh": 1,
      "name": "Red_Cyan_0"
    },
    {
      "mesh": 2,
      "name": "Red_White_0"
    },
    {
      "mesh": 3,
      "name": "Red_Skin_0"
    },
    {
      "mesh": 4,
      "name": "Red_Red_0"
    },
    {
      "mesh": 5,
      "name": "Red_Yellow_0"
    },
    {
      "mesh": 6,
      "name": "Red_Seafoam_0"
    },
    {
      "mesh": 7,
      "name": "Red_Green_0"
    },
    {
      "mesh": 8,
      "name": "Red_Orange_0"
    },
    {
      "mesh": 9,
      "name": "Red_Flame_0"
    },
    {
      "mesh": 10,
      "name": "Red_BlueLight_0"
    },
    {
      "mesh": 11,
      "name": "Red_Brown_0"
    }
  ],
  "scene": 0,
  "scenes": [
    {
      "name": "OSG_Scene",
      "nodes": [0]
    }
  ]
}
