{
  "accessors": [
    {
      "bufferView": 2,
      "componentType": 5126,
      "count": 2814,
      "max": [2.020261287689209, 2.3049843311309814, 9.9549360275268555],
      "min": [-2.0024189949035645, -2.2955491542816162, 0.060688991099596024],
      "type": "VEC3"
    },
    {
      "bufferView": 2,
      "byteOffset": 33768,
      "componentType": 5126,
      "count": 2814,
      "max": [0.99933278560638428, 0.99971610307693481, 0.97985804080963135],
      "min": [-0.99976646900177002, -0.99924319982528687, -0.9966282844543457],
      "type": "VEC3"
    },
    {
      "bufferView": 3,
      "componentType": 5126,
      "count": 2814,
      "max": [0.99955284595489502, 0.99838095903396606, 0.99999892711639404, 1],
      "min": [
        -0.99958276748657227, -0.99749612808227539, -0.99000561237335205, -1
      ],
      "type": "VEC4"
    },
    {
      "bufferView": 1,
      "componentType": 5126,
      "count": 2814,
      "max": [0.9894402027130127, 0.9986996054649353],
      "min": [0.010351046919822693, 0.0013003945350646973],
      "type": "VEC2"
    },
    {
      "bufferView": 0,
      "componentType": 5125,
      "count": 3774,
      "max": [2813],
      "min": [0],
      "type": "SCALAR"
    }
  ],
  "asset": {
    "extras": {
      "author": "nenjo (https://sketchfab.com/nenjo)",
      "license": "CC-BY-4.0 (http://creativecommons.org/licenses/by/4.0/)",
      "source": "https://sketchfab.com/models/b68f79aee62f4e849be265c903f724f5",
      "title": "Spruce Tree - Low Poly"
    },
    "generator": "Sketchfab-3.20.7",
    "version": "2.0"
  },
  "bufferViews": [
    {
      "buffer": 0,
      "byteLength": 15096,
      "byteOffset": 0,
      "name": "floatBufferViews",
      "target": 34963
    },
    {
      "buffer": 0,
      "byteLength": 22512,
      "byteOffset": 15096,
      "byteStride": 8,
      "name": "floatBufferViews",
      "target": 34962
    },
    {
      "buffer": 0,
      "byteLength": 67536,
      "byteOffset": 37608,
      "byteStride": 12,
      "name": "floatBufferViews",
      "target": 34962
    },
    {
      "buffer": 0,
      "byteLength": 45024,
      "byteOffset": 105144,
      "byteStride": 16,
      "name": "floatBufferViews",
      "target": 34962
    }
  ],
  "buffers": [
    {
      "byteLength": 150168,
      "uri": "scene.bin"
    }
  ],
  "images": [
    {
      "uri": "textures/tree-spruce_metallicRoughness.png"
    },
    {
      "uri": "textures/tree-spruce_baseColor.jpeg"
    }
  ],
  "materials": [
    {
      "doubleSided": true,
      "emissiveFactor": [0, 0, 0],
      "name": "tree-spruce",
      "occlusionTexture": {
        "index": 0,
        "strength": 0.41634908539999999,
        "texCoord": 0
      },
      "pbrMetallicRoughness": {
        "baseColorFactor": [1, 1, 1, 1],
        "baseColorTexture": {
          "index": 1,
          "texCoord": 0
        },
        "metallicFactor": 0,
        "roughnessFactor": 1
      }
    }
  ],
  "meshes": [
    {
      "name": "tree_tree-spruce_0",
      "primitives": [
        {
          "attributes": {
            "NORMAL": 1,
            "POSITION": 0,
            "TANGENT": 2,
            "TEXCOORD_0": 3
          },
          "indices": 4,
          "material": 0,
          "mode": 4
        }
      ]
    }
  ],
  "nodes": [
    {
      "children": [1],
      "name": "RootNode (gltf orientation matrix)",
      "rotation": [-0.70710678118654746, -0, -0, 0.70710678118654757]
    },
    {
      "children": [2],
      "name": "RootNode (model correction matrix)"
    },
    {
      "children": [3],
      "matrix": [1, 0, 0, 0, 0, 0, 1, 0, 0, -1, 0, 0, 0, 0, 0, 1],
      "name": "880181b7200142869fd52576e9ebe796.fbx"
    },
    {
      "children": [4, 7, 10, 12],
      "name": "RootNode"
    },
    {
      "children": [5],
      "matrix": [
        -90.0942849928946, 1.8856876970234775, -43.352785303004268, 0,
        -39.593293486559283, -44.459302635830035, 80.347619716728445, 0,
        -17.759242193997409, 89.553415844596316, 40.801899799638562, 0, 0, 0, 0,
        1
      ],
      "name": "Sun.001"
    },
    {
      "children": [6],
      "matrix": [
        1, 0, 0, 0, 0, 2.2204460492503131e-16, 1, 0, 0, -1,
        2.2204460492503131e-16, 0, 0, 0, 0, 1
      ],
      "name": ""
    },
    {
      "name": ""
    },
    {
      "children": [8],
      "matrix": [
        68.011892369053413, 72.545121191372104, 10.56351682487549, 0,
        73.270597851728027, -67.73923142529064, -6.5433948651495957, 0,
        2.4087313736991294, 12.190238604721863, -99.224977177771649, 0, 0, 0, 0,
        1
      ],
      "name": "Sun"
    },
    {
      "children": [9],
      "matrix": [
        1, 0, 0, 0, 0, 2.2204460492503131e-16, 1, 0, 0, -1,
        2.2204460492503131e-16, 0, 0, 0, 0, 1
      ],
      "name": ""
    },
    {
      "name": ""
    },
    {
      "children": [11],
      "matrix": [
        100, 0, 0, 0, 0, -1.6292067939183141e-5, -99.999999999998678, 0, 0,
        99.999999999998678, -1.6292067939183141e-5, 0, 0, -49.711109161376953,
        0, 1
      ],
      "name": "tree"
    },
    {
      "mesh": 0,
      "name": "tree_tree-spruce_0"
    },
    {
      "children": [13],
      "matrix": [
        -65.48615898796433, -44.524533257868029, -61.066594134371599, 0,
        -31.737007733719864, 89.53432833071254, -31.246862090103878, 0,
        68.588084396000383, -1.0816600839305441, -72.763347162908659, 0,
        748.1131591796875, 534.36651611328125, 650.76397705078125, 1
      ],
      "name": "Camera"
    },
    {
      "name": ""
    }
  ],
  "samplers": [
    {
      "magFilter": 9729,
      "minFilter": 9987,
      "wrapS": 10497,
      "wrapT": 10497
    }
  ],
  "scene": 0,
  "scenes": [
    {
      "name": "OSG_Scene",
      "nodes": [0]
    }
  ],
  "textures": [
    {
      "sampler": 0,
      "source": 0
    },
    {
      "sampler": 0,
      "source": 1
    }
  ]
}
