{
  "asset": {
    "generator": "Khronos glTF Blender I/O v1.6.16",
    "version": "2.0"
  },
  "scene": 0,
  "scenes": [
    {
      "name": "Scene",
      "nodes": [12]
    }
  ],
  "nodes": [
    {
      "name": "Sea_Sea_0_12"
    },
    {
      "children": [0],
      "name": "Sea_11",
      "rotation": [-0.7071068286895752, 0, 0, 0.7071068286895752],
      "translation": [
        -1.3877105712890625, 326.2240295410156, 14.920204162597656
      ]
    },
    {
      "mesh": 0,
      "name": "Mesh_6",
      "scale": [0.5, 0.5, 0.5]
    },
    {
      "children": [2],
      "name": "Sky_Sky_0_14"
    },
    {
      "children": [3],
      "name": "Sky_13",
      "rotation": [-0.7071068286895752, 0, 0, 0.7071068286895752]
    },
    {
      "children": [1, 4],
      "name": "RootNode_3"
    },
    {
      "children": [5],
      "name": "ef0dcba82d2d448fbfe0ca97f8fadd87.fbx_2",
      "rotation": [0.7071068286895752, 0, 0, 0.7071068286895752]
    },
    {
      "children": [6],
      "name": "RootNode (model correction matrix)_1"
    },
    {
      "children": [7],
      "name": "RootNode (gltf orientation matrix)_0",
      "rotation": [-0.7071068286895752, 0, 0, 0.7071068286895752]
    },
    {
      "children": [8],
      "name": "GLTF_SceneRootNode",
      "rotation": [0.7071068286895752, 0, 0, 0.7071068286895752]
    },
    {
      "children": [9],
      "name": "root"
    },
    {
      "children": [10],
      "name": "RootNode (model correction matrix)"
    },
    {
      "children": [11],
      "name": "RootNode (gltf orientation matrix)",
      "rotation": [-0.7071068286895752, 0, 0, 0.7071068286895752]
    }
  ],
  "materials": [
    {
      "alphaMode": "BLEND",
      "emissiveFactor": [1, 1, 1],
      "emissiveTexture": {
        "index": 0
      },
      "name": "material_5",
      "pbrMetallicRoughness": {
        "baseColorFactor": [1, 1, 1, 0.06227273494005203],
        "baseColorTexture": {
          "index": 1
        },
        "roughnessFactor": 0.7592424154281616
      }
    }
  ],
  "meshes": [
    {
      "name": "Mesh_6",
      "primitives": [
        {
          "attributes": {
            "POSITION": 0,
            "NORMAL": 1,
            "TEXCOORD_0": 2,
            "TEXCOORD_1": 3
          },
          "indices": 4,
          "material": 0
        }
      ]
    }
  ],
  "textures": [
    {
      "sampler": 0,
      "source": 0
    },
    {
      "sampler": 0,
      "source": 1
    }
  ],
  "images": [
    {
      "mimeType": "image/jpeg",
      "name": "material_5_emissive",
      "uri": "textures/material_5_emissive.jpg"
    },
    {
      "mimeType": "image/png",
      "name": "material_5_baseColor",
      "uri": "textures/material_5_baseColor.png"
    }
  ],
  "accessors": [
    {
      "bufferView": 0,
      "componentType": 5126,
      "count": 261,
      "max": [842.3355712890625, 842.418212890625, 820.8984985351562],
      "min": [-838.5533447265625, -838.470703125, -19.546142578125],
      "type": "VEC3"
    },
    {
      "bufferView": 1,
      "componentType": 5126,
      "count": 261,
      "type": "VEC3"
    },
    {
      "bufferView": 2,
      "componentType": 5126,
      "count": 261,
      "type": "VEC2"
    },
    {
      "bufferView": 3,
      "componentType": 5126,
      "count": 261,
      "type": "VEC2"
    },
    {
      "bufferView": 4,
      "componentType": 5123,
      "count": 1260,
      "type": "SCALAR"
    }
  ],
  "bufferViews": [
    {
      "buffer": 0,
      "byteLength": 3132,
      "byteOffset": 0
    },
    {
      "buffer": 0,
      "byteLength": 3132,
      "byteOffset": 3132
    },
    {
      "buffer": 0,
      "byteLength": 2088,
      "byteOffset": 6264
    },
    {
      "buffer": 0,
      "byteLength": 2088,
      "byteOffset": 8352
    },
    {
      "buffer": 0,
      "byteLength": 2520,
      "byteOffset": 10440
    }
  ],
  "samplers": [
    {
      "magFilter": 9729,
      "minFilter": 9987
    }
  ],
  "buffers": [
    {
      "byteLength": 12960,
      "uri": "scene.bin"
    }
  ]
}
