{
  "accessors": [
    {
      "bufferView": 2,
      "componentType": 5126,
      "count": 1057,
      "max": [
        0.5080866813659668,
        1.0803308486938477,
        0.69884341955184937
      ],
      "min": [
        -0.16922259330749512,
        -0.2869219183921814,
        -0.56925195455551147
      ],
      "type": "VEC3"
    },
    {
      "bufferView": 2,
      "byteOffset": 12684,
      "componentType": 5126,
      "count": 1057,
      "max": [
        1,
        1,
        1
      ],
      "min": [
        -1,
        -1,
        -1
      ],
      "type": "VEC3"
    },
    {
      "bufferView": 1,
      "componentType": 5126,
      "count": 1057,
      "max": [
        0.875,
        0.98750126361846924
      ],
      "min": [
        0.125,
        -2.5338540630859166e-16
      ],
      "type": "VEC2"
    },
    {
      "bufferView": 0,
      "componentType": 5125,
      "count": 3846,
      "max": [
        1056
      ],
      "min": [
        0
      ],
      "type": "SCALAR"
    },
    {
      "bufferView": 2,
      "byteOffset": 25368,
      "componentType": 5126,
      "count": 436,
      "max": [
        0.6965031623840332,
        0.87297606468200684,
        0.56472176313400269
      ],
      "min": [
        0.37636089324951172,
        -0.28652399778366089,
        -0.43513038754463196
      ],
      "type": "VEC3"
    },
    {
      "bufferView": 2,
      "byteOffset": 30600,
      "componentType": 5126,
      "count": 436,
      "max": [
        1,
        1,
        0.99992674589157104
      ],
      "min": [
        -1,
        -0.99991649389266968,
        -0.99992674589157104
      ],
      "type": "VEC3"
    },
    {
      "bufferView": 1,
      "byteOffset": 8456,
      "componentType": 5126,
      "count": 436,
      "max": [
        1,
        1
      ],
      "min": [
        0,
        -2.9802322387695312e-08
      ],
      "type": "VEC2"
    },
    {
      "bufferView": 0,
      "byteOffset": 15384,
      "componentType": 5125,
      "count": 1056,
      "max": [
        435
      ],
      "min": [
        0
      ],
      "type": "SCALAR"
    },
    {
      "bufferView": 2,
      "byteOffset": 35832,
      "componentType": 5126,
      "count": 280,
      "max": [
        0.63808965682983398,
        0.19306513667106628,
        0.71119523048400879
      ],
      "min": [
        0.078989580273628235,
        0.056651681661605835,
        -0.57858312129974365
      ],
      "type": "VEC3"
    },
    {
      "bufferView": 2,
      "byteOffset": 39192,
      "componentType": 5126,
      "count": 280,
      "max": [
        1,
        1,
        1
      ],
      "min": [
        -1,
        -0.73196029663085938,
        -1
      ],
      "type": "VEC3"
    },
    {
      "bufferView": 1,
      "byteOffset": 11944,
      "componentType": 5126,
      "count": 280,
      "max": [
        0.61250138282775879,
        0.625
      ],
      "min": [
        0.46729007363319397,
        0.125
      ],
      "type": "VEC2"
    },
    {
      "bufferView": 0,
      "byteOffset": 19608,
      "componentType": 5125,
      "count": 420,
      "max": [
        279
      ],
      "min": [
        0
      ],
      "type": "SCALAR"
    },
    {
      "bufferView": 2,
      "byteOffset": 42552,
      "componentType": 5126,
      "count": 12,
      "max": [
        0.37636089324951172,
        0.75516402721405029,
        0.25227785110473633
      ],
      "min": [
        0.37636089324951172,
        0.58793962001800537,
        -0.12776921689510345
      ],
      "type": "VEC3"
    },
    {
      "bufferView": 2,
      "byteOffset": 42696,
      "componentType": 5126,
      "count": 12,
      "max": [
        1,
        1.6238082878317073e-07,
        0
      ],
      "min": [
        1,
        -2.5558213678777975e-07,
        0
      ],
      "type": "VEC3"
    },
    {
      "bufferView": 1,
      "byteOffset": 14184,
      "componentType": 5126,
      "count": 12,
      "max": [
        0.61250138282775879,
        0.3860497772693634
      ],
      "min": [
        0.61250138282775879,
        0.36395037174224854
      ],
      "type": "VEC2"
    },
    {
      "bufferView": 0,
      "byteOffset": 21288,
      "componentType": 5125,
      "count": 18,
      "max": [
        11
      ],
      "min": [
        0
      ],
      "type": "SCALAR"
    },
    {
      "bufferView": 2,
      "byteOffset": 42840,
      "componentType": 5126,
      "count": 16,
      "max": [
        0.6965031623840332,
        -0.075443893671035767,
        0.48892486095428467
      ],
      "min": [
        0.6965031623840332,
        -0.22428081929683685,
        -0.35916656255722046
      ],
      "type": "VEC3"
    },
    {
      "bufferView": 2,
      "byteOffset": 43032,
      "componentType": 5126,
      "count": 16,
      "max": [
        1,
        4.4385862452145375e-07,
        0
      ],
      "min": [
        1,
        0,
        0
      ],
      "type": "VEC3"
    },
    {
      "bufferView": 1,
      "byteOffset": 14280,
      "componentType": 5126,
      "count": 16,
      "max": [
        0.61250138282775879,
        0.70615053176879883
      ],
      "min": [
        0.61250132322311401,
        0.027934081852436066
      ],
      "type": "VEC2"
    },
    {
      "bufferView": 0,
      "byteOffset": 21360,
      "componentType": 5125,
      "count": 36,
      "max": [
        15
      ],
      "min": [
        0
      ],
      "type": "SCALAR"
    }
  ],
  "asset": {
    "extras": {
      "author": "vincentjo (https://sketchfab.com/vincentjoman)",
      "license": "CC-BY-4.0 (http://creativecommons.org/licenses/by/4.0/)",
      "source": "https://sketchfab.com/3d-models/snorlax-pokemon-quest-d5c1a89a6e5247bb9567d272580b6258",
      "title": "Snorlax (Pokemon Quest)"
    },
    "generator": "Sketchfab-7.40.0",
    "version": "2.0"
  },
  "bufferViews": [
    {
      "buffer": 0,
      "byteLength": 21504,
      "byteOffset": 0,
      "name": "floatBufferViews",
      "target": 34963
    },
    {
      "buffer": 0,
      "byteLength": 14408,
      "byteOffset": 21504,
      "byteStride": 8,
      "name": "floatBufferViews",
      "target": 34962
    },
    {
      "buffer": 0,
      "byteLength": 43224,
      "byteOffset": 35912,
      "byteStride": 12,
      "name": "floatBufferViews",
      "target": 34962
    }
  ],
  "buffers": [
    {
      "byteLength": 79136,
      "uri": "scene.bin"
    }
  ],
  "materials": [
    {
      "doubleSided": true,
      "emissiveFactor": [
        0,
        0,
        0
      ],
      "name": "Snorlax",
      "pbrMetallicRoughness": {
        "baseColorFactor": [
          0.070000000000000007,
          0.245,
          0.24199999999999999,
          1
        ],
        "metallicFactor": 0,
        "roughnessFactor": 0.59999999999999998
      }
    },
    {
      "doubleSided": true,
      "emissiveFactor": [
        0,
        0,
        0
      ],
      "name": "Snorlax_Body",
      "pbrMetallicRoughness": {
        "baseColorFactor": [
          0.873,
          0.65100000000000002,
          0.38500000000000001,
          1
        ],
        "metallicFactor": 0,
        "roughnessFactor": 0.59999999999999998
      }
    },
    {
      "doubleSided": true,
      "emissiveFactor": [
        0,
        0,
        0
      ],
      "name": "Snorlax_Finger",
      "pbrMetallicRoughness": {
        "baseColorFactor": [
          1,
          1,
          1,
          1
        ],
        "metallicFactor": 0,
        "roughnessFactor": 0.59999999999999998
      }
    },
    {
      "doubleSided": true,
      "emissiveFactor": [
        0,
        0,
        0
      ],
      "name": "Snorlax_Eye",
      "pbrMetallicRoughness": {
        "baseColorFactor": [
          0,
          0,
          0,
          1
        ],
        "metallicFactor": 0,
        "roughnessFactor": 0.59999999999999998
      }
    },
    {
      "doubleSided": true,
      "emissiveFactor": [
        0,
        0,
        0
      ],
      "name": "Snorlax_FeetUnder",
      "pbrMetallicRoughness": {
        "baseColorFactor": [
          0.128,
          0.085999999999999993,
          0.035900000000000001,
          1
        ],
        "metallicFactor": 0,
        "roughnessFactor": 0.59999999999999998
      }
    }
  ],
  "meshes": [
    {
      "name": "pCube39_Snorlax_0",
      "primitives": [
        {
          "attributes": {
            "NORMAL": 1,
            "POSITION": 0,
            "TEXCOORD_0": 2
          },
          "indices": 3,
          "material": 0,
          "mode": 4
        }
      ]
    },
    {
      "name": "pCube39_Snorlax_Body_0",
      "primitives": [
        {
          "attributes": {
            "NORMAL": 5,
            "POSITION": 4,
            "TEXCOORD_0": 6
          },
          "indices": 7,
          "material": 1,
          "mode": 4
        }
      ]
    },
    {
      "name": "pCube39_Snorlax_Finger_0",
      "primitives": [
        {
          "attributes": {
            "NORMAL": 9,
            "POSITION": 8,
            "TEXCOORD_0": 10
          },
          "indices": 11,
          "material": 2,
          "mode": 4
        }
      ]
    },
    {
      "name": "pCube39_Snorlax_Eye_0",
      "primitives": [
        {
          "attributes": {
            "NORMAL": 13,
            "POSITION": 12,
            "TEXCOORD_0": 14
          },
          "indices": 15,
          "material": 3,
          "mode": 4
        }
      ]
    },
    {
      "name": "pCube39_Snorlax_FeetUnder_0",
      "primitives": [
        {
          "attributes": {
            "NORMAL": 17,
            "POSITION": 16,
            "TEXCOORD_0": 18
          },
          "indices": 19,
          "material": 4,
          "mode": 4
        }
      ]
    }
  ],
  "nodes": [
    {
      "children": [
        1
      ],
      "name": "RootNode (gltf orientation matrix)",
      "rotation": [
        -0.70710678118654746,
        -0,
        -0,
        0.70710678118654757
      ]
    },
    {
      "children": [
        2
      ],
      "name": "RootNode (model correction matrix)"
    },
    {
      "children": [
        3
      ],
      "matrix": [
        1,
        0,
        0,
        0,
        0,
        0,
        1,
        0,
        0,
        -1,
        0,
        0,
        0,
        0,
        0,
        1
      ],
      "name": "01aa8896bfba4529ba813461bc7daaf1.fbx"
    },
    {
      "children": [
        4
      ],
      "name": "RootNode"
    },
    {
      "children": [
        5,
        6,
        7,
        8,
        9
      ],
      "matrix": [
        3.3451383113861084,
        0,
        0,
        0,
        0,
        3.3451383113861084,
        0,
        0,
        0,
        0,
        3.5495634078979492,
        0,
        -3.6022548675537109,
        20.469594955444336,
        3.1210141181945801,
        1
      ],
      "name": "pCube39"
    },
    {
      "mesh": 0,
      "name": "pCube39_Snorlax_0"
    },
    {
      "mesh": 1,
      "name": "pCube39_Snorlax_Body_0"
    },
    {
      "mesh": 2,
      "name": "pCube39_Snorlax_Finger_0"
    },
    {
      "mesh": 3,
      "name": "pCube39_Snorlax_Eye_0"
    },
    {
      "mesh": 4,
      "name": "pCube39_Snorlax_FeetUnder_0"
    }
  ],
  "scene": 0,
  "scenes": [
    {
      "name": "OSG_Scene",
      "nodes": [
        0
      ]
    }
  ]
}

